<svg width="25" height="25" viewBox="0 0 25 25" fill="none" xmlns="http://www.w3.org/2000/svg">
<path d="M17.5561 12.4846C17.5561 12.7373 17.351 12.9424 17.0983 12.9424H12.9676V17.0737C12.9676 17.3264 12.7624 17.5315 12.5098 17.5315C12.2572 17.5315 12.0521 17.3264 12.0521 17.0737V12.9424H7.92102C7.66839 12.9424 7.46326 12.7373 7.46326 12.4846C7.46326 12.2319 7.66839 12.0269 7.92102 12.0269H12.0521V7.89557C12.0521 7.64237 12.2572 7.43781 12.5098 7.43781C12.7624 7.43781 12.9676 7.64237 12.9676 7.89557V12.0269H17.0983C17.351 12.0269 17.5561 12.2319 17.5561 12.4846Z" fill="black" fill-opacity="0.5"/>
<path d="M23.7488 4.43201C24.0014 4.43201 24.2065 4.22688 24.2065 3.97425V1.22681C24.2065 0.974178 24.0014 0.769043 23.7488 0.769043H21.0013C20.7487 0.769043 20.5436 0.974178 20.5436 1.22681V2.14291H19.0484C18.7958 2.14291 18.5906 2.34776 18.5906 2.60067C18.5906 2.8533 18.7958 3.05843 19.0484 3.05843H20.5436V3.97425C20.5436 4.22688 20.7487 4.43201 21.0013 4.43201H21.9172V10.6769H21.0013C20.7487 10.6769 20.5436 10.882 20.5436 11.1347V13.8823C20.5436 14.1349 20.7487 14.34 21.0013 14.34H21.9172V20.5439H21.0013C20.7487 20.5439 20.5436 20.7487 20.5436 21.0016V21.9172H14.3412V21.0016C14.3412 20.7487 14.1363 20.5439 13.8834 20.5439H11.136C10.8833 20.5439 10.6782 20.7487 10.6782 21.0016V21.9172H4.43172V21.0016C4.43172 20.7487 4.22688 20.5439 3.97396 20.5439H3.05843V14.34H3.97396C4.22688 14.34 4.43172 14.1349 4.43172 13.8823V11.1347C4.43172 10.882 4.22688 10.6769 3.97396 10.6769H3.05843V4.43201H3.97396C4.22688 4.43201 4.43172 4.22688 4.43172 3.97425V3.05843H10.6782V3.97425C10.6782 4.22688 10.8833 4.43201 11.136 4.43201H13.8834C14.1363 4.43201 14.3412 4.22688 14.3412 3.97425V3.05843H15.8363C16.0895 3.05843 16.2941 2.8533 16.2941 2.60067C16.2941 2.34776 16.0895 2.14291 15.8363 2.14291H14.3412V1.22681C14.3412 0.974178 14.1363 0.769043 13.8834 0.769043H11.136C10.8833 0.769043 10.6782 0.974178 10.6782 1.22681V2.14291H4.43172V1.22681C4.43172 0.974178 4.22688 0.769043 3.97396 0.769043H1.22681C0.974178 0.769043 0.769043 0.974178 0.769043 1.22681V3.97425C0.769043 4.22688 0.974178 4.43201 1.22681 4.43201H2.14291V10.6769H1.22681C0.974178 10.6769 0.769043 10.882 0.769043 11.1347V13.8823C0.769043 14.1349 0.974178 14.34 1.22681 14.34H2.14291V20.5439H1.22681C0.974178 20.5439 0.769043 20.7487 0.769043 21.0016V23.7488C0.769043 24.0014 0.974178 24.2065 1.22681 24.2065H3.97396C4.22688 24.2065 4.43172 24.0014 4.43172 23.7488V22.8327H10.6782V23.7488C10.6782 24.0014 10.8833 24.2065 11.136 24.2065H13.8834C14.1363 24.2065 14.3412 24.0014 14.3412 23.7488V22.8327H20.5436V23.7488C20.5436 24.0014 20.7487 24.2065 21.0013 24.2065H23.7488C24.0014 24.2065 24.2065 24.0014 24.2065 23.7488V21.0016C24.2065 20.7487 24.0014 20.5439 23.7488 20.5439H22.8327V14.34H23.7488C24.0014 14.34 24.2065 14.1349 24.2065 13.8823V11.1347C24.2065 10.882 24.0014 10.6769 23.7488 10.6769H22.8327V4.43201H23.7488ZM11.5937 1.68457H13.4256V3.51648H11.5937V1.68457ZM1.68457 3.51648V1.68457H3.5162V3.51648H1.68457ZM1.68457 13.4245V11.5924H3.5162V13.4245H1.68457ZM3.5162 23.291H1.68457V21.4594H3.5162V23.291ZM13.4256 23.291H11.5937V21.4594H13.4256V23.291ZM23.291 21.4594V23.291H21.4591V21.4594H23.291ZM23.291 11.5924V13.4245H21.4591V11.5924H23.291ZM21.4591 3.51648V1.68457H23.291V3.51648H21.4591Z" fill="black" fill-opacity="0.5"/>
<path d="M17.4434 3.05844C17.1906 3.05844 16.9853 2.85331 16.9853 2.60068C16.9853 2.34776 17.19 2.14291 17.4429 2.14291H17.4434C17.6961 2.14291 17.9011 2.34776 17.9011 2.60068C17.9011 2.85331 17.6961 3.05844 17.4434 3.05844Z" fill="black" fill-opacity="0.5"/>
</svg>
