<svg width="64" height="71" viewBox="0 0 64 71" fill="none" xmlns="http://www.w3.org/2000/svg">
<g clip-path="url(#clip0)">
<path d="M30.8389 32.6928L3.0677 46.7836V17.7058L30.8389 3.615V32.6928ZM60.9347 46.7836L33.1635 32.6928V3.615L60.9347 17.7058V46.7836ZM33.1635 64.6748L60.9347 50.584V53.8294L33.1635 67.9193V64.6748ZM3.06679 50.584L30.8389 64.6748V67.9193L3.0677 53.8294L3.06679 50.584ZM12.8979 44.4192L13.5651 44.7121L6.09256 49.4097L4.49827 48.6838L12.8979 44.4192ZM22.7405 39.4287L29.9871 43.1014L22.7405 46.7758L15.4947 43.1014L22.7405 39.4287ZM42.4185 46.7749L35.1727 43.1022L41.8406 39.7226L49.0864 43.3952L42.4185 46.7749ZM52.8371 52.0678L45.0117 48.097L51.6797 44.713L59.5041 48.6838L52.8371 52.0678ZM42.9972 57.0583L35.1727 53.0875L42.4193 49.4097L50.2438 53.3804L42.9972 57.0583ZM25.3338 48.097L32.5795 44.4192L39.8261 48.097L32.5795 51.774L25.3338 48.097ZM32.0016 34.7312L39.2474 38.4091L32.5795 41.7931L25.3338 38.1153L32.0016 34.7312ZM0.833391 54.9674C0.863159 55.0348 0.899063 55.0986 0.940212 55.1589C0.975232 55.2255 1.01808 55.2884 1.06536 55.347C1.12402 55.4047 1.18796 55.4565 1.258 55.5C1.30003 55.5381 31.4833 70.8704 31.4833 70.8704C31.8213 71.0328 32.1811 71.0327 32.4867 70.8782L62.6104 55.6053C62.7248 55.5272 62.8336 55.4412 62.9361 55.3478C63.0237 55.2271 63.1007 55.0996 63.1682 54.9674C63.1936 54.8866 63.2102 54.8029 63.2172 54.7186C63.2321 54.6645 63.2505 16.9795 63.2505 16.9795C63.233 16.8401 63.2055 16.7023 63.1682 16.567C63.1009 16.4343 63.0233 16.3071 62.9361 16.1869C62.8775 16.1295 62.8129 16.0787 62.7435 16.0352C62.7024 15.9962 32.5191 0.663887 32.5191 0.663887C32.1811 0.501474 31.8213 0.501641 31.5157 0.656953L1.39197 15.9291C1.27731 16.0073 1.16815 16.0932 1.06536 16.1869C1.01746 16.2455 0.975559 16.3092 0.940212 16.3763C0.899063 16.4357 0.863138 16.5004 0.834246 16.567C0.807981 16.6477 0.792216 16.7322 0.784336 16.8166C0.769452 16.8698 0.751953 54.5548 0.751953 54.5548C0.792227 54.8033 0.808856 54.8866 0.834246 54.9674H0.833391Z" fill="black"/>
<path d="M3.9126 48.6261L31.929 34.4261L59.407 48.6261L31.929 62.8261L3.9126 48.6261Z" fill="#F1F1F1"/>
<path d="M3.9126 48.6261L31.929 34.4261C31.929 34.4261 18.9977 46.9878 31.929 62.8261C44.8603 78.6645 3.9126 48.6261 3.9126 48.6261Z" fill="url(#paint0_linear)"/>
</g>
<defs>
<linearGradient id="paint0_linear" x1="19.1832" y1="34.4261" x2="19.1832" y2="67.438" gradientUnits="userSpaceOnUse">
<stop stop-color="#FF5B14"/>
<stop offset="1" stop-color="#FF7F47"/>
</linearGradient>
<clipPath id="clip0">
<rect width="63.0369" height="71" fill="white" transform="translate(0.366699)"/>
</clipPath>
</defs>
</svg>
